<?xml version="1.0" standalone="no"?><!DOCTYPE svg PUBLIC "-//W3C//DTD SVG 1.1//EN" "http://www.w3.org/Graphics/SVG/1.1/DTD/svg11.dtd"><svg t="1603869090342" class="icon" viewBox="0 0 1228 1024" version="1.1" xmlns="http://www.w3.org/2000/svg" p-id="3718" xmlns:xlink="http://www.w3.org/1999/xlink" width="153.5" height="128"><defs><style type="text/css"></style></defs><path d="M122.953728 837.8368h1044.48a61.44 61.44 0 1 1 0 122.88H61.513728a61.44 61.44 0 0 1-53.0432-92.5696A45.2608 45.2608 0 0 1 0.073728 842.1376V51.6096C0.073728 22.9376 27.619328 0 61.513728 0c33.8944 0 61.44 23.04 61.44 51.5072v786.3296z m161.4848-189.952c-6.144 0-11.264-4.4032-11.264-9.8304V440.1152a9.216 9.216 0 0 1 3.1744-6.9632c66.2528-158.72 145.6128-238.1824 238.1824-238.1824 138.8544 0 224.9728 162.4064 313.4464 142.5408 58.9824-13.312 128.2048-94.9248 207.7696-245.248 7.0656-6.144 19.3536-1.8432 19.3536 7.0656v538.624c0 5.5296-5.12 9.9328-11.264 9.9328H284.336128z" p-id="3719" fill="#ffffff"></path></svg>