<?xml version="1.0" standalone="no"?><!DOCTYPE svg PUBLIC "-//W3C//DTD SVG 1.1//EN" "http://www.w3.org/Graphics/SVG/1.1/DTD/svg11.dtd"><svg t="1607927542451" class="icon" viewBox="0 0 1024 1024" version="1.1" xmlns="http://www.w3.org/2000/svg" p-id="6636" xmlns:xlink="http://www.w3.org/1999/xlink" width="128" height="128"><defs><style type="text/css"></style></defs><path d="M866.432 1024H157.568A158.016 158.016 0 0 1 0 866.432V157.568A158.016 158.016 0 0 1 157.568 0h708.864A158.016 158.016 0 0 1 1024 157.568v708.864A158.016 158.016 0 0 1 866.432 1024zM708.928 275.712a39.04 39.04 0 0 0-39.36-39.424H275.712a39.04 39.04 0 0 0-39.424 39.424c0 22.016 17.344 39.36 39.424 39.36h393.856a39.04 39.04 0 0 0 39.36-39.36zM236.288 512c0 22.08 17.344 39.36 39.424 39.36H590.72A39.04 39.04 0 0 0 630.144 512a39.04 39.04 0 0 0-39.36-39.36H275.712A39.04 39.04 0 0 0 236.288 512z m512 196.928H275.712a39.04 39.04 0 0 0-39.424 39.36c0 22.08 17.344 39.424 39.424 39.424h472.576a39.04 39.04 0 0 0 39.424-39.424 39.04 39.04 0 0 0-39.424-39.36z" p-id="6637" fill="#ffffff"></path></svg>