<?xml version="1.0" standalone="no"?><!DOCTYPE svg PUBLIC "-//W3C//DTD SVG 1.1//EN" "http://www.w3.org/Graphics/SVG/1.1/DTD/svg11.dtd"><svg t="1607927600160" class="icon" viewBox="0 0 1024 1024" version="1.1" xmlns="http://www.w3.org/2000/svg" p-id="10583" xmlns:xlink="http://www.w3.org/1999/xlink" width="128" height="128"><defs><style type="text/css"></style></defs><path d="M510.464 0.170667c280.661333 0 510.293333 229.632 510.293333 510.293333 0 280.661333-229.632 510.293333-510.293333 510.293333-280.661333 0-510.293333-229.632-510.293333-510.293333 0-280.661333 229.632-510.293333 510.293333-510.293333zM382.890667 552.96H297.856v8.490667a211.541333 211.541333 0 0 0 212.608 204.117333c119.04 0 212.608-93.568 212.608-212.608h-85.034667v8.490667c-4.266667 68.053333-59.52 119.04-127.573333 119.04-72.277333 0-127.573333-55.253333-127.573333-127.573334zM297.856 340.352c-34.048 0-63.786667 29.781333-63.786667 63.786667 0 34.048 29.738667 63.786667 63.786667 63.786666 34.005333 0 63.786667-29.738667 63.786667-63.786666 0-34.005333-29.781333-63.786667-63.786667-63.786667z m425.216 0c-34.005333 0-63.786667 29.781333-63.786667 63.786667 0 34.048 29.781333 63.786667 63.786667 63.786666 34.048 0 63.786667-29.738667 63.786667-63.786666 0-34.005333-29.738667-63.786667-63.786667-63.786667z" p-id="10584" fill="#ffffff"></path></svg>