<?xml version="1.0" standalone="no"?><!DOCTYPE svg PUBLIC "-//W3C//DTD SVG 1.1//EN" "http://www.w3.org/Graphics/SVG/1.1/DTD/svg11.dtd"><svg t="1603869214273" class="icon" viewBox="0 0 1180 1024" version="1.1" xmlns="http://www.w3.org/2000/svg" p-id="8361" xmlns:xlink="http://www.w3.org/1999/xlink" width="147.5" height="128"><defs><style type="text/css"></style></defs><path d="M947.16897 271.422061C947.137939 271.235879 947.075879 271.049697 946.982788 270.894545 866.086788 129.458424 709.632 31.030303 533.410909 31.030303 273.097697 31.030303 62.060606 239.429818 62.060606 496.484848 62.060606 719.592727 221.059879 906.053818 433.245091 951.420121 465.547636 958.308848 499.060364 961.939394 533.410909 961.939394L533.410909 961.939394C548.150303 961.939394 560.09697 950.147879 560.09697 935.594667 560.09697 921.041455 548.150303 909.249939 533.410909 909.249939 503.249455 909.249939 473.491394 906.084848 444.540121 899.909818 253.827879 859.136 115.432727 691.727515 115.432727 496.484848 115.432727 268.536242 302.576485 83.719758 533.410909 83.719758 687.290182 83.719758 829.533091 170.728727 902.485333 300.528485 902.609455 300.714667 902.764606 300.869818 902.981818 300.962909 907.822545 307.665455 915.766303 312.071758 924.734061 312.071758 939.473455 312.071758 951.420121 300.249212 951.420121 285.72703 951.420121 280.451879 949.868606 275.549091 947.16897 271.422061L947.16897 271.422061 947.16897 271.422061ZM733.990788 808.866909 1037.249939 396.722424C1054.533818 373.201455 1087.984485 368.081455 1111.877818 385.210182L1125.996606 395.357091C1149.889939 412.516848 1155.351273 445.377939 1137.974303 468.992L834.715152 881.136485 733.990788 808.866909 733.990788 808.866909ZM723.533576 823.078788 824.28897 895.348364 702.588121 956.167758 723.533576 823.078788 723.533576 823.078788ZM337.764848 417.450667C372.146424 417.450667 400.011636 389.926788 400.011636 355.979636 400.011636 322.032485 372.146424 294.508606 337.764848 294.508606 303.383273 294.508606 275.518061 322.032485 275.518061 355.979636 275.518061 389.926788 303.383273 417.450667 337.764848 417.450667L337.764848 417.450667ZM711.307636 417.450667C745.689212 417.450667 773.554424 389.926788 773.554424 355.979636 773.554424 322.032485 745.689212 294.508606 711.307636 294.508606 676.89503 294.508606 649.029818 322.032485 649.029818 355.979636 649.029818 389.926788 676.89503 417.450667 711.307636 417.450667L711.307636 417.450667ZM285.758061 602.949818C317.564121 710.780121 418.009212 786.307879 533.410909 786.307879 648.533333 786.307879 748.761212 711.183515 780.846545 603.725576 786.40097 585.138424 775.633455 565.589333 756.76703 560.09697 737.931636 554.635636 718.134303 565.248 712.579879 583.866182 689.369212 661.628121 616.789333 716.024242 533.410909 716.024242 449.846303 716.024242 377.080242 661.317818 354.086788 583.276606 348.594424 564.658424 328.828121 553.95297 309.961697 559.383273 291.126303 564.813576 280.265697 584.300606 285.758061 602.949818L285.758061 602.949818Z" p-id="8362" fill="#ffffff"></path></svg>