<?xml version="1.0" standalone="no"?><!DOCTYPE svg PUBLIC "-//W3C//DTD SVG 1.1//EN" "http://www.w3.org/Graphics/SVG/1.1/DTD/svg11.dtd"><svg t="1607927781746" class="icon" viewBox="0 0 1024 1024" version="1.1" xmlns="http://www.w3.org/2000/svg" p-id="14149" xmlns:xlink="http://www.w3.org/1999/xlink" width="128" height="128"><defs><style type="text/css"></style></defs><path d="M512 0a512 512 0 1 0 512 512A512 512 0 0 0 512 0z m242.834286 292.571429L526.628571 803.401143a16.969143 16.969143 0 0 1-15.798857 10.532571 17.554286 17.554286 0 0 1-14.628571-14.628571L462.262857 561.737143 225.28 526.628571a17.554286 17.554286 0 0 1-14.628571-14.628571 18.724571 18.724571 0 0 1 9.947428-18.139429l512-227.620571a16.969143 16.969143 0 0 1 22.235429 26.331429z" p-id="14150" fill="#ffffff"></path></svg>