<?xml version="1.0" standalone="no"?><!DOCTYPE svg PUBLIC "-//W3C//DTD SVG 1.1//EN" "http://www.w3.org/Graphics/SVG/1.1/DTD/svg11.dtd"><svg t="1607506599275" class="icon" viewBox="0 0 1024 1024" version="1.1" xmlns="http://www.w3.org/2000/svg" p-id="7786" xmlns:xlink="http://www.w3.org/1999/xlink" width="128" height="128"><defs><style type="text/css"></style></defs><path d="M511.998 0C229.688 0 0 229.708 0 511.998 0 794.292 229.708 1024 511.998 1024 794.292 1024 1024 794.292 1024 511.998 1024 229.708 794.312 0 511.998 0z m0 981.569c-258.921 0-469.546-210.647-469.546-469.571 0-258.919 210.625-469.571 469.546-469.571 258.924 0 469.551 210.652 469.551 469.571 0 258.924-210.627 469.571-469.551 469.571z m0-474.409" fill="#ffffff" p-id="7787"></path><path d="M837.424 260.305V423.08c0 19.709-7.264 38.163-20.425 52.049-13.16 13.975-30.765 21.59-49.396 21.59H613.605c-38.542 0-69.82-33.057-69.82-73.729V260.305c0-40.672 31.364-73.729 69.82-73.729h153.913c38.542 0.09 69.906 33.147 69.906 73.729M432.089 535.869H278.092c-38.543 0-69.82 33.056-69.82 73.728v162.776c0 40.672 31.363 73.729 69.82 73.729h153.997c18.716 0 36.235-7.705 49.396-21.59 13.16-13.886 20.425-32.43 20.425-52.05V609.598c0-40.672-31.364-73.728-69.82-73.728m335 2.418H611.726c-38.798 0-70.333 32.878-70.333 73.191v161.433c0 19.619 7.35 37.984 20.596 51.78s30.936 21.41 49.652 21.41h155.28c38.798 0 70.333-32.877 70.333-73.19V611.568c0.17-40.403-31.45-73.28-70.162-73.28M433.97 186.665H278.604c-38.713 0-70.333 32.788-70.333 73.19V421.29c0 19.62 7.35 37.984 20.596 51.78s30.936 21.411 49.652 21.411h155.28c38.798 0 70.333-32.878 70.333-73.19V259.766c0.17-40.313-31.45-73.101-70.162-73.101m0 0z" fill="#ffffff" p-id="7788"></path></svg>