<?xml version="1.0" standalone="no"?><!DOCTYPE svg PUBLIC "-//W3C//DTD SVG 1.1//EN" "http://www.w3.org/Graphics/SVG/1.1/DTD/svg11.dtd"><svg t="1607495781177" class="icon" viewBox="0 0 1025 1024" version="1.1" xmlns="http://www.w3.org/2000/svg" p-id="11900" xmlns:xlink="http://www.w3.org/1999/xlink" width="128.125" height="128"><defs><style type="text/css"></style></defs><path d="M512.775957 0.000776a511.999612 511.999612 0 1 0 513.164129 511.999612A512.387784 512.387784 0 0 0 512.775957 0.000776z m0 990.228211a478.228599 478.228599 0 1 1 479.004944-478.228599 478.616771 478.616771 0 0 1-479.004944 478.228599z" fill="#d4237a" p-id="11901"></path><path d="M269.391759 352.073292m-82.292583 0a82.292584 82.292584 0 1 0 164.585167 0 82.292584 82.292584 0 1 0-164.585167 0Z" fill="#d4237a" p-id="11902"></path><path d="M756.160155 352.073292m-82.292584 0a82.292584 82.292584 0 1 0 164.585167 0 82.292584 82.292584 0 1 0-164.585167 0Z" fill="#d4237a" p-id="11903"></path><path d="M734.034318 630.004848c-20.961318 95.490451-118.780805 190.592729-220.870188 190.592728a256.970237 256.970237 0 0 1-226.692778-190.592728 36.488221 36.488221 0 0 0-32.994668-28.336598c-22.125836 0-22.125836 28.336597-22.125836 28.336598a285.695007 285.695007 0 0 0 563.626563 0s6.210761-28.336597-20.184973-28.336598a43.8635 43.8635 0 0 0-40.75812 28.336598z" fill="#d4237a" p-id="11904"></path></svg>