<?xml version="1.0" standalone="no"?><!DOCTYPE svg PUBLIC "-//W3C//DTD SVG 1.1//EN" "http://www.w3.org/Graphics/SVG/1.1/DTD/svg11.dtd"><svg t="1625478972160" class="icon" viewBox="0 0 1170 1024" version="1.1" xmlns="http://www.w3.org/2000/svg" p-id="10258" xmlns:xlink="http://www.w3.org/1999/xlink" width="146.25" height="128"><defs><style type="text/css"></style></defs><path d="M1021.85718 2.165l-442.28-0.99-67.313 186.513 13.64 134.926-76.117 78.748 46.184-89.74-52.702-133.21L490.11918 0 150.46118 2.165C70.18118 2.677-0.33282 64.798 0.00218 145.08l3.064 729.887C3.40118 955.254 65.71418 1024 145.99618 1024h875.862c80.288 0 145.98-65.683 145.98-145.973V148.14c0-80.283-65.69-145.975-145.981-145.975zM158.11118 76.425l235.378-1.267-10.718 119.42 72.067 121.374-53.686 160.215L561.95418 339.24l10.635-155.594 58.852-108.49h390.416c36.494 0 72.992 36.485 72.992 72.982v654.21L913.89318 571.472c-21.896-36.493-65.688-36.493-94.882-7.298L614.64318 768.544 402.97918 498.49c-21.897-29.193-58.393-29.193-87.587 0L76.84118 790.585l2.295-639.765c0.157-43.789 35.185-74.158 78.974-74.395z" p-id="10259"></path><path d="M701.45118 290.097a114.74 114.74 0 1 0 229.48 0 114.74 114.74 0 1 0-229.48 0z" p-id="10260"></path></svg>